<svg width="120" height="41" viewBox="0 0 120 41" fill="none" xmlns="http://www.w3.org/2000/svg">
<g clip-path="url(#clip0_1956_2458)">
<mask id="mask0_1956_2458" style="mask-type:luminance" maskUnits="userSpaceOnUse" x="0" y="0" width="120" height="41">
<path d="M119.664 0.780029H0V40.78H119.664V0.780029Z" fill="white"/>
</mask>
<g mask="url(#mask0_1956_2458)">
<path d="M110.135 0.780159H9.53468C9.16798 0.780159 8.80568 0.780159 8.43995 0.782159C8.1338 0.784159 7.83009 0.789969 7.521 0.794859C6.84951 0.802761 6.17961 0.861836 5.5171 0.971569C4.85552 1.08369 4.21467 1.29508 3.61622 1.59857C3.0185 1.90463 2.47235 2.30233 1.99757 2.77723C1.5203 3.2508 1.12246 3.79818 0.81935 4.39832C0.5154 4.99727 0.304641 5.6391 0.19435 6.30164C0.0830109 6.96335 0.0230984 7.63268 0.01515 8.30364C0.00587 8.61024 0.00489 8.91786 0 9.2245V32.3387C0.00489 32.6492 0.00587 32.95 0.01515 33.2606C0.0231008 33.9316 0.0830134 34.6009 0.19435 35.2625C0.304336 35.9255 0.515108 36.5677 0.81935 37.1668C1.12233 37.765 1.52022 38.3102 1.99757 38.7811C2.47054 39.2581 3.01705 39.6561 3.61622 39.9598C4.21467 40.2641 4.85545 40.4768 5.5171 40.5906C6.17972 40.6995 6.84956 40.7586 7.521 40.7674C7.83009 40.7742 8.1338 40.7781 8.43995 40.7781C8.80567 40.7801 9.168 40.7801 9.53468 40.7801H110.135C110.494 40.7801 110.859 40.7801 111.219 40.7781C111.523 40.7781 111.836 40.7742 112.141 40.7674C112.811 40.7591 113.479 40.7 114.141 40.5906C114.804 40.476 115.448 40.2634 116.049 39.9598C116.647 39.6559 117.193 39.258 117.666 38.7811C118.142 38.3084 118.541 37.7636 118.848 37.1668C119.15 36.5672 119.358 35.9251 119.467 35.2625C119.578 34.6008 119.64 33.9316 119.652 33.2606C119.656 32.95 119.656 32.6492 119.656 32.3387C119.664 31.9754 119.664 31.6141 119.664 31.2449V10.3163C119.664 9.95008 119.664 9.5868 119.656 9.2245C119.656 8.91786 119.656 8.61024 119.652 8.3036C119.64 7.63258 119.578 6.9634 119.467 6.3016C119.358 5.63944 119.149 4.99766 118.848 4.39828C118.23 3.19536 117.252 2.21619 116.049 1.59848C115.448 1.29573 114.804 1.0844 114.141 0.971479C113.48 0.861262 112.811 0.802167 112.141 0.794719C111.836 0.789839 111.523 0.783979 111.219 0.782029C110.859 0.780029 110.494 0.780159 110.135 0.780159Z" fill="#A6A6A6"/>
<path d="M8.44487 39.905C8.14019 39.905 7.84287 39.9011 7.54058 39.8943C6.91436 39.8861 6.28961 39.8316 5.67144 39.7312C5.09503 39.6319 4.53664 39.4473 4.0147 39.1833C3.49754 38.9215 3.02585 38.5783 2.6177 38.1667C2.20364 37.76 1.85892 37.2882 1.59719 36.7702C1.33258 36.2488 1.14945 35.6899 1.05419 35.113C0.951311 34.4931 0.895651 33.8663 0.887687 33.238C0.881347 33.0271 0.873047 32.3249 0.873047 32.3249V9.22437C0.873047 9.22437 0.881887 8.53296 0.887737 8.32983C0.895363 7.70251 0.950699 7.07668 1.05327 6.45776C1.14871 5.87928 1.33198 5.31878 1.59673 4.79566C1.85749 4.27797 2.2003 3.80589 2.61187 3.39771C3.02297 2.98565 3.49617 2.64063 4.01421 2.37524C4.53495 2.11212 5.09228 1.92876 5.66753 1.8313C6.28773 1.72987 6.91465 1.67503 7.54304 1.66724L8.44536 1.65503H111.214L112.127 1.66773C112.75 1.67513 113.371 1.72948 113.985 1.83032C114.566 1.92901 115.13 2.11365 115.656 2.37817C116.694 2.91302 117.539 3.75919 118.071 4.7981C118.332 5.31761 118.512 5.87354 118.606 6.44702C118.71 7.07102 118.768 7.70177 118.78 8.33423C118.783 8.61743 118.783 8.92163 118.783 9.22437C118.791 9.59937 118.791 9.9563 118.791 10.3162V31.2448C118.791 31.6081 118.791 31.9626 118.783 32.32C118.783 32.6452 118.783 32.9431 118.779 33.2497C118.768 33.8709 118.71 34.4904 118.608 35.1032C118.515 35.6843 118.333 36.2475 118.068 36.7732C117.805 37.2856 117.462 37.7533 117.053 38.1589C116.644 38.5727 116.172 38.9179 115.653 39.1814C115.128 39.4474 114.566 39.6327 113.985 39.7312C113.367 39.8322 112.742 39.8867 112.116 39.8943C111.823 39.9011 111.517 39.905 111.219 39.905L110.135 39.907L8.44487 39.905Z" fill="black"/>
<path d="M24.769 21.0808C24.7797 20.2462 25.0014 19.4278 25.4135 18.7018C25.8255 17.9759 26.4144 17.3659 27.1255 16.9288C26.6738 16.2836 26.0779 15.7527 25.385 15.3781C24.6922 15.0036 23.9216 14.7957 23.1344 14.7711C21.4551 14.5948 19.8272 15.7759 18.9715 15.7759C18.0992 15.7759 16.7817 14.7886 15.363 14.8178C14.4453 14.8474 13.551 15.1143 12.7671 15.5923C11.9832 16.0704 11.3365 16.7433 10.8901 17.5456C8.95607 20.8941 10.3986 25.8151 12.2513 28.5217C13.1782 29.8471 14.2614 31.3275 15.6789 31.275C17.0659 31.2175 17.584 30.3905 19.2583 30.3905C20.917 30.3905 21.4031 31.275 22.8493 31.2416C24.3377 31.2175 25.2754 29.9104 26.1698 28.5725C26.8358 27.6281 27.3482 26.5844 27.6882 25.48C26.8235 25.1143 26.0856 24.5021 25.5665 23.7198C25.0473 22.9375 24.77 22.0197 24.769 21.0808Z" fill="white"/>
<path d="M22.0371 12.9908C22.8486 12.0166 23.2484 10.7645 23.1516 9.50024C21.9117 9.63047 20.7665 10.223 19.944 11.1598C19.5419 11.6175 19.2339 12.1499 19.0376 12.7267C18.8414 13.3035 18.7607 13.9133 18.8003 14.5212C19.4204 14.5276 20.0339 14.3932 20.5946 14.1281C21.1553 13.863 21.6485 13.4742 22.0371 12.9908Z" fill="white"/>
<path d="M42.3022 27.9198H37.5688L36.432 31.2762H34.4272L38.9106 18.8582H40.9936L45.477 31.2762H43.4379L42.3022 27.9198ZM38.059 26.3709H41.811L39.9614 20.9237H39.9096L38.059 26.3709Z" fill="white"/>
<path d="M55.1597 26.7499C55.1597 29.5634 53.6538 31.371 51.3814 31.371C50.8057 31.4011 50.2332 31.2685 49.7294 30.9884C49.2256 30.7083 48.8109 30.2919 48.5327 29.787H48.4897V34.2714H46.6313V22.2226H48.4302V23.7285H48.4644C48.7553 23.226 49.1771 22.8118 49.6847 22.5299C50.1923 22.2481 50.7669 22.1091 51.3472 22.1279C53.645 22.1279 55.1597 23.9443 55.1597 26.7499ZM53.2495 26.7499C53.2495 24.9169 52.3023 23.7119 50.8569 23.7119C49.437 23.7119 48.4819 24.9423 48.4819 26.7499C48.4819 28.5742 49.437 29.7958 50.8569 29.7958C52.3023 29.7958 53.2495 28.5996 53.2495 26.7499Z" fill="white"/>
<path d="M65.1245 26.7499C65.1245 29.5634 63.6187 31.371 61.3462 31.371C60.7706 31.4011 60.1981 31.2685 59.6943 30.9884C59.1905 30.7083 58.7757 30.2919 58.4976 29.787H58.4546V34.2714H56.5962V22.2226H58.395V23.7284H58.4292C58.7201 23.226 59.1419 22.8118 59.6495 22.5299C60.1571 22.2481 60.7317 22.1091 61.312 22.1279C63.6099 22.1279 65.1245 23.9443 65.1245 26.7499ZM63.2144 26.7499C63.2144 24.9169 62.2671 23.7118 60.8218 23.7118C59.4019 23.7118 58.4468 24.9423 58.4468 26.7499C58.4468 28.5742 59.4019 29.7958 60.8218 29.7958C62.2671 29.7958 63.2144 28.5995 63.2144 26.7499Z" fill="white"/>
<path d="M71.7105 27.8162C71.8482 29.0476 73.0445 29.8562 74.6792 29.8562C76.2456 29.8562 77.3726 29.0476 77.3726 27.9372C77.3726 26.9734 76.6929 26.3962 75.0835 26.0007L73.4741 25.613C71.1939 25.0622 70.1353 23.9958 70.1353 22.2654C70.1353 20.1228 72.0025 18.6511 74.6538 18.6511C77.2778 18.6511 79.0767 20.1228 79.1372 22.2654H77.2612C77.1489 21.0261 76.1245 20.2781 74.6274 20.2781C73.1304 20.2781 72.1059 21.0349 72.1059 22.1365C72.1059 23.0144 72.7603 23.531 74.3608 23.9265L75.729 24.2624C78.2768 24.8649 79.3354 25.8884 79.3354 27.7048C79.3354 30.028 77.4848 31.4831 74.5415 31.4831C71.7876 31.4831 69.9282 30.0622 69.8081 27.8161L71.7105 27.8162Z" fill="white"/>
<path d="M83.3462 20.0798V22.2224H85.0679V23.6941H83.3462V28.6853C83.3462 29.4607 83.6909 29.822 84.4478 29.822C84.6522 29.8184 84.8562 29.8041 85.0591 29.779V31.2419C84.7188 31.3055 84.373 31.3343 84.0269 31.3278C82.1939 31.3278 81.479 30.6393 81.479 28.8835V23.6941H80.1626V22.2224H81.479V20.0798H83.3462Z" fill="white"/>
<path d="M86.0649 26.7497C86.0649 23.9011 87.7426 22.1111 90.3588 22.1111C92.9838 22.1111 94.6538 23.9011 94.6538 26.7497C94.6538 29.6062 92.9926 31.3884 90.3588 31.3884C87.726 31.3884 86.0649 29.6062 86.0649 26.7497ZM92.7602 26.7497C92.7602 24.7956 91.8647 23.6423 90.3588 23.6423C88.853 23.6423 87.9584 24.8044 87.9584 26.7497C87.9584 28.7116 88.853 29.8562 90.3588 29.8562C91.8647 29.8562 92.7602 28.7116 92.7602 26.7497Z" fill="white"/>
<path d="M96.186 22.2225H97.9585V23.7635H98.0015C98.1214 23.2822 98.4034 22.8569 98.8 22.559C99.1966 22.2611 99.6836 22.1088 100.179 22.1278C100.393 22.127 100.607 22.1503 100.816 22.1971V23.9354C100.546 23.8528 100.264 23.8148 99.981 23.8231C99.711 23.8121 99.4418 23.8597 99.192 23.9626C98.9421 24.0655 98.7175 24.2212 98.5335 24.4191C98.3496 24.617 98.2106 24.8524 98.1262 25.1091C98.0417 25.3657 98.0139 25.6376 98.0444 25.9061V31.2762H96.186V22.2225Z" fill="white"/>
<path d="M109.384 28.6169C109.134 30.2605 107.534 31.3884 105.486 31.3884C102.852 31.3884 101.217 29.6237 101.217 26.7927C101.217 23.9529 102.861 22.1111 105.408 22.1111C107.913 22.1111 109.488 23.8318 109.488 26.5769V27.2136H103.093V27.3259C103.064 27.6591 103.105 27.9948 103.216 28.3106C103.326 28.6264 103.502 28.9152 103.732 29.1578C103.963 29.4003 104.242 29.5911 104.552 29.7174C104.861 29.8437 105.195 29.9026 105.529 29.8903C105.968 29.9315 106.409 29.8298 106.785 29.6003C107.162 29.3709 107.455 29.026 107.62 28.6169H109.384ZM103.102 25.9148H107.628C107.645 25.6152 107.6 25.3154 107.495 25.0341C107.39 24.7529 107.229 24.4964 107.02 24.2806C106.812 24.0649 106.561 23.8945 106.283 23.7803C106.006 23.6661 105.708 23.6105 105.408 23.6169C105.105 23.6151 104.805 23.6733 104.525 23.788C104.245 23.9027 103.99 24.0718 103.776 24.2854C103.562 24.4991 103.392 24.753 103.276 25.0327C103.16 25.3123 103.101 25.6121 103.102 25.9148Z" fill="white"/>
<path d="M37.8262 9.51092C38.2158 9.48296 38.6068 9.54182 38.9709 9.68326C39.335 9.82469 39.6632 10.0452 39.9318 10.3288C40.2004 10.6124 40.4026 10.9521 40.524 11.3234C40.6455 11.6946 40.6829 12.0882 40.6338 12.4757C40.6338 14.382 39.6035 15.4777 37.8262 15.4777H35.6709V9.51092H37.8262ZM36.5977 14.6339H37.7227C38.0011 14.6505 38.2797 14.6049 38.5382 14.5003C38.7968 14.3957 39.0287 14.2347 39.2172 14.0291C39.4057 13.8236 39.546 13.5786 39.6279 13.312C39.7097 13.0453 39.7311 12.7638 39.6904 12.4879C39.7282 12.2131 39.7046 11.9333 39.6215 11.6686C39.5384 11.404 39.3977 11.161 39.2097 10.957C39.0216 10.7531 38.7908 10.5933 38.5337 10.4891C38.2766 10.3848 37.9997 10.3388 37.7227 10.3541H36.5977V14.6339Z" fill="white"/>
<path d="M41.6805 13.2243C41.6522 12.9284 41.686 12.6298 41.7799 12.3477C41.8737 12.0657 42.0255 11.8063 42.2254 11.5863C42.4253 11.3664 42.6691 11.1906 42.9409 11.0703C43.2128 10.95 43.5068 10.8879 43.804 10.8879C44.1013 10.8879 44.3953 10.95 44.6671 11.0703C44.939 11.1906 45.1827 11.3664 45.3826 11.5863C45.5826 11.8063 45.7343 12.0657 45.8282 12.3477C45.922 12.6298 45.9559 12.9284 45.9276 13.2243C45.9564 13.5205 45.923 13.8195 45.8294 14.102C45.7358 14.3845 45.5841 14.6444 45.3841 14.8648C45.1841 15.0852 44.9402 15.2613 44.6681 15.3819C44.396 15.5024 44.1016 15.5647 43.804 15.5647C43.5064 15.5647 43.2121 15.5024 42.9399 15.3819C42.6678 15.2613 42.4239 15.0852 42.2239 14.8648C42.0239 14.6444 41.8723 14.3845 41.7787 14.102C41.6851 13.8195 41.6516 13.5205 41.6805 13.2243ZM45.0135 13.2243C45.0135 12.2482 44.575 11.6774 43.8055 11.6774C43.033 11.6774 42.5985 12.2482 42.5985 13.2243C42.5985 14.2082 43.0331 14.7746 43.8055 14.7746C44.575 14.7746 45.0135 14.2043 45.0135 13.2243Z" fill="white"/>
<path d="M51.5732 15.4779H50.6513L49.7206 12.1614H49.6503L48.7236 15.4779H47.8105L46.5693 10.9749H47.4706L48.2773 14.4109H48.3437L49.2695 10.9749H50.122L51.0478 14.4109H51.1181L51.9208 10.9749H52.8095L51.5732 15.4779Z" fill="white"/>
<path d="M53.8536 10.975H54.709V11.6903H54.7754C54.8881 11.4334 55.0781 11.218 55.319 11.0742C55.5598 10.9304 55.8396 10.8653 56.1192 10.888C56.3383 10.8716 56.5583 10.9046 56.7629 10.9847C56.9675 11.0648 57.1514 11.1899 57.3011 11.3508C57.4508 11.5116 57.5624 11.7041 57.6276 11.9139C57.6928 12.1237 57.7099 12.3455 57.6778 12.5628V15.4778H56.7891V12.786C56.7891 12.0624 56.4746 11.7025 55.8174 11.7025C55.6687 11.6956 55.5202 11.7209 55.3821 11.7767C55.244 11.8326 55.1197 11.9176 55.0176 12.026C54.9154 12.1344 54.838 12.2635 54.7904 12.4047C54.7429 12.5458 54.7265 12.6955 54.7422 12.8436V15.4779H53.8535L53.8536 10.975Z" fill="white"/>
<path d="M59.0938 9.21704H59.9824V15.4778H59.0938V9.21704Z" fill="white"/>
<path d="M61.218 13.2244C61.1897 12.9284 61.2236 12.6299 61.3174 12.3478C61.4113 12.0657 61.5631 11.8063 61.7631 11.5864C61.963 11.3664 62.2067 11.1906 62.4786 11.0703C62.7505 10.95 63.0445 10.8879 63.3418 10.8879C63.6391 10.8879 63.9331 10.95 64.2049 11.0703C64.4768 11.1906 64.7205 11.3664 64.9205 11.5864C65.1205 11.8063 65.2722 12.0657 65.3661 12.3478C65.46 12.6299 65.4938 12.9284 65.4656 13.2244C65.4944 13.5206 65.4609 13.8196 65.3673 14.1021C65.2736 14.3846 65.122 14.6445 64.9219 14.8649C64.7219 15.0853 64.478 15.2614 64.2059 15.3819C63.9337 15.5025 63.6394 15.5647 63.3418 15.5647C63.0442 15.5647 62.7498 15.5025 62.4777 15.3819C62.2055 15.2614 61.9616 15.0853 61.7616 14.8649C61.5616 14.6445 61.4099 14.3846 61.3163 14.1021C61.2227 13.8196 61.1892 13.5206 61.218 13.2244ZM64.551 13.2244C64.551 12.2483 64.1125 11.6775 63.343 11.6775C62.5705 11.6775 62.136 12.2483 62.136 13.2244C62.136 14.2083 62.5706 14.7747 63.343 14.7747C64.1125 14.7747 64.551 14.2044 64.551 13.2244Z" fill="white"/>
<path d="M66.4009 14.2043C66.4009 13.3938 67.0044 12.9265 68.0757 12.8601L69.2954 12.7898V12.4011C69.2954 11.9255 68.981 11.657 68.3736 11.657C67.8775 11.657 67.5337 11.8391 67.4351 12.1574H66.5747C66.6656 11.384 67.3931 10.8879 68.4146 10.8879C69.5435 10.8879 70.1802 11.4499 70.1802 12.4011V15.4778H69.3247V14.8449H69.2544C69.1117 15.0719 68.9113 15.257 68.6737 15.3812C68.4361 15.5054 68.1697 15.5643 67.9019 15.5519C67.7129 15.5716 67.5218 15.5514 67.341 15.4927C67.1603 15.434 66.9938 15.3381 66.8524 15.2111C66.711 15.0842 66.5977 14.929 66.52 14.7556C66.4422 14.5821 66.4017 14.3944 66.4009 14.2043ZM69.2954 13.8195V13.4431L68.1958 13.5134C67.5757 13.5549 67.2945 13.7658 67.2945 14.1628C67.2945 14.5681 67.646 14.8039 68.1295 14.8039C68.2711 14.8182 68.4142 14.8039 68.5502 14.7619C68.6862 14.7198 68.8123 14.6507 68.9211 14.5589C69.0299 14.4671 69.1191 14.3543 69.1834 14.2273C69.2477 14.1002 69.2858 13.9616 69.2954 13.8195Z" fill="white"/>
<path d="M71.3481 13.2244C71.3481 11.8015 72.0795 10.9001 73.2172 10.9001C73.4986 10.8872 73.7779 10.9546 74.0225 11.0945C74.267 11.2344 74.4666 11.441 74.5981 11.6901H74.6645V9.21704H75.5532V15.4778H74.7016V14.7663H74.6313C74.4897 15.0138 74.2831 15.2178 74.0338 15.3563C73.7846 15.4948 73.5022 15.5625 73.2172 15.552C72.0717 15.552 71.3481 14.6506 71.3481 13.2244ZM72.2661 13.2244C72.2661 14.1794 72.7163 14.7541 73.4692 14.7541C74.2182 14.7541 74.6811 14.1711 74.6811 13.2283C74.6811 12.2898 74.2133 11.6985 73.4692 11.6985C72.7211 11.6985 72.2661 12.2771 72.2661 13.2244Z" fill="white"/>
<path d="M79.2302 13.2243C79.2019 12.9284 79.2358 12.6298 79.3296 12.3477C79.4234 12.0657 79.5752 11.8063 79.7751 11.5863C79.9751 11.3664 80.2188 11.1906 80.4906 11.0703C80.7625 10.95 81.0565 10.8879 81.3538 10.8879C81.651 10.8879 81.945 10.95 82.2169 11.0703C82.4887 11.1906 82.7324 11.3664 82.9324 11.5863C83.1323 11.8063 83.2841 12.0657 83.3779 12.3477C83.4717 12.6298 83.5056 12.9284 83.4773 13.2243C83.5061 13.5205 83.4727 13.8195 83.3791 14.102C83.2855 14.3845 83.1338 14.6444 82.9338 14.8648C82.7338 15.0852 82.4899 15.2613 82.2178 15.3819C81.9457 15.5024 81.6514 15.5647 81.3538 15.5647C81.0561 15.5647 80.7618 15.5024 80.4897 15.3819C80.2175 15.2613 79.9737 15.0852 79.7737 14.8648C79.5737 14.6444 79.422 14.3845 79.3284 14.102C79.2348 13.8195 79.2014 13.5205 79.2302 13.2243ZM82.5632 13.2243C82.5632 12.2482 82.1247 11.6774 81.3552 11.6774C80.5828 11.6774 80.1482 12.2482 80.1482 13.2243C80.1482 14.2082 80.5828 14.7746 81.3552 14.7746C82.1247 14.7746 82.5632 14.2043 82.5632 13.2243Z" fill="white"/>
<path d="M84.6694 10.975H85.5248V11.6903H85.5912C85.7039 11.4334 85.8939 11.218 86.1348 11.0742C86.3756 10.9304 86.6554 10.8653 86.935 10.888C87.1541 10.8716 87.3741 10.9046 87.5787 10.9847C87.7833 11.0648 87.9672 11.1899 88.1169 11.3508C88.2666 11.5116 88.3782 11.7041 88.4434 11.9139C88.5086 12.1237 88.5257 12.3455 88.4936 12.5628V15.4778H87.6049V12.786C87.6049 12.0624 87.2905 11.7025 86.6332 11.7025C86.4845 11.6956 86.336 11.7209 86.1979 11.7767C86.0599 11.8326 85.9355 11.9176 85.8334 12.026C85.7313 12.1344 85.6538 12.2635 85.6063 12.4047C85.5587 12.5458 85.5423 12.6955 85.558 12.8436V15.4779H84.6694V10.975Z" fill="white"/>
<path d="M93.5151 9.85376V10.9953H94.4907V11.7439H93.5151V14.0593C93.5151 14.531 93.7094 14.7375 94.1518 14.7375C94.265 14.7372 94.3782 14.7303 94.4907 14.717V15.4572C94.3311 15.4858 94.1694 15.501 94.0073 15.5026C93.019 15.5026 92.6255 15.155 92.6255 14.2868V11.7438H91.9106V10.9953H92.6255V9.85376H93.5151Z" fill="white"/>
<path d="M95.7046 9.21704H96.5855V11.6985H96.6558C96.7739 11.4391 96.9691 11.2225 97.2148 11.0782C97.4605 10.9339 97.7448 10.8688 98.0288 10.8918C98.2467 10.88 98.4646 10.9164 98.6669 10.9984C98.8692 11.0804 99.0509 11.2061 99.199 11.3664C99.3471 11.5268 99.458 11.7178 99.5238 11.926C99.5896 12.1341 99.6086 12.3542 99.5796 12.5705V15.4778H98.69V12.7898C98.69 12.0705 98.355 11.7063 97.7271 11.7063C97.5744 11.6937 97.4207 11.7147 97.277 11.7678C97.1332 11.8208 97.0027 11.9047 96.8948 12.0134C96.7868 12.1221 96.7038 12.2532 96.6518 12.3973C96.5997 12.5414 96.5798 12.6952 96.5933 12.8479V15.4777H95.7047L95.7046 9.21704Z" fill="white"/>
<path d="M104.761 14.262C104.641 14.6735 104.379 15.0295 104.022 15.2677C103.666 15.5058 103.236 15.611 102.81 15.5647C102.513 15.5726 102.219 15.5157 101.946 15.3982C101.674 15.2807 101.43 15.1053 101.232 14.8841C101.034 14.663 100.887 14.4014 100.8 14.1176C100.713 13.8338 100.689 13.5345 100.73 13.2405C100.691 12.9456 100.715 12.6457 100.801 12.361C100.888 12.0764 101.034 11.8136 101.231 11.5905C101.428 11.3674 101.671 11.1893 101.942 11.0681C102.214 10.9469 102.509 10.8854 102.806 10.888C104.059 10.888 104.815 11.744 104.815 13.158V13.4681H101.635V13.5179C101.621 13.6831 101.642 13.8495 101.696 14.0062C101.75 14.163 101.837 14.3067 101.95 14.4281C102.062 14.5496 102.2 14.6461 102.352 14.7115C102.504 14.7769 102.669 14.8097 102.835 14.8079C103.047 14.8334 103.262 14.7951 103.453 14.6979C103.644 14.6007 103.802 14.449 103.906 14.262H104.761ZM101.635 12.8108H103.91C103.921 12.6597 103.9 12.5079 103.849 12.3652C103.798 12.2225 103.718 12.092 103.614 11.9821C103.509 11.8723 103.383 11.7855 103.243 11.7273C103.103 11.6691 102.953 11.6409 102.801 11.6443C102.648 11.6424 102.495 11.6713 102.353 11.7292C102.21 11.7872 102.081 11.873 101.972 11.9817C101.864 12.0904 101.778 12.2198 101.72 12.3622C101.662 12.5046 101.633 12.6571 101.635 12.8108Z" fill="white"/>
</g>
</g>
<defs>
<clipPath id="clip0_1956_2458">
<rect width="120" height="40" fill="white" transform="translate(0 0.780029)"/>
</clipPath>
</defs>
</svg>
