<svg width="20" height="21" viewBox="0 0 20 21" fill="none" xmlns="http://www.w3.org/2000/svg">
<g clip-path="url(#clip0_1956_2506)">
<path d="M17 0.75H3C1.34315 0.75 0 2.09315 0 3.75V17.75C0 19.4069 1.34315 20.75 3 20.75H17C18.6569 20.75 20 19.4069 20 17.75V3.75C20 2.09315 18.6569 0.75 17 0.75Z" fill="white"/>
<path fill-rule="evenodd" clip-rule="evenodd" d="M8.25342 20.4123C8.74468 20.491 9.24855 20.5318 9.76196 20.5318C10.3129 20.5318 10.853 20.4853 11.3785 20.396V13.5439H13.7085L14.1519 10.6533H11.3785V8.77748C11.3785 7.98666 11.7659 7.21582 13.0081 7.21582H14.2691V4.75489C14.2691 4.75489 13.1247 4.55957 12.0306 4.55957C9.74635 4.55957 8.25342 5.94395 8.25342 8.4502V10.6533H5.71436V13.5439H8.25342V20.4123Z" fill="#434343"/>
</g>
<defs>
<clipPath id="clip0_1956_2506">
<rect width="20" height="20" fill="white" transform="translate(0 0.75)"/>
</clipPath>
</defs>
</svg>
