<svg width="20" height="21" viewBox="0 0 20 21" fill="none" xmlns="http://www.w3.org/2000/svg">
<g clip-path="url(#clip0_1956_3940)">
<path d="M17 0.700195H3C1.34315 0.700195 0 2.04334 0 3.7002V17.7002C0 19.357 1.34315 20.7002 3 20.7002H17C18.6569 20.7002 20 19.357 20 17.7002V3.7002C20 2.04334 18.6569 0.700195 17 0.700195Z" fill="#434343"/>
<path fill-rule="evenodd" clip-rule="evenodd" d="M8.25294 20.3625C8.74419 20.4411 9.24806 20.482 9.76148 20.482C10.3124 20.482 10.8525 20.4355 11.378 20.3462V13.4941H13.708L14.1514 10.6035H11.378V8.72768C11.378 7.93686 11.7654 7.16602 13.0076 7.16602H14.2686V4.70508C14.2686 4.70508 13.1242 4.50977 12.0301 4.50977C9.74587 4.50977 8.25294 5.89414 8.25294 8.40039V10.6035H5.71387V13.4941H8.25294V20.3625Z" fill="white"/>
</g>
<defs>
<clipPath id="clip0_1956_3940">
<rect width="20" height="20" fill="white" transform="translate(0 0.700195)"/>
</clipPath>
</defs>
</svg>
