<svg width="16" height="16" viewBox="0 0 16 16" fill="none" xmlns="http://www.w3.org/2000/svg">
<g clip-path="url(#clip0_1987_3)">
<path d="M21.4428 21.5174L-5.99067 21.5267L-6 -5.99067L21.4334 -6L21.4428 21.5174Z" fill="white" stroke="black" stroke-width="0.333318"/>
<path fill-rule="evenodd" clip-rule="evenodd" d="M55.9993 14.2201C56.0013 14.2839 56.0052 14.3476 56.005 14.4113C56.0059 15.2905 56.0065 16.1696 56.0068 17.0485C55.9549 17.0677 55.901 17.0585 55.8483 17.0582C53.1595 17.0599 50.4712 17.0606 47.7825 17.0615H47.7244C47.5982 17.0602 47.5983 17.0599 47.5968 16.9319L47.597 16.8732C47.5949 11.013 47.5929 5.15337 47.5917 -0.706675C47.5916 -0.916945 47.5602 -0.893962 47.7765 -0.894172C48.6453 -0.89522 49.514 -0.89508 50.3826 -0.895401C50.4214 -0.895401 50.46 -0.894172 50.499 -0.895401C50.5428 -0.896477 50.5586 -0.874961 50.5573 -0.832418C50.5555 -0.788058 50.5571 -0.743909 50.557 -0.69948C50.5587 4.21016 50.5604 9.11959 50.562 14.0288C50.562 14.2179 50.5619 14.2182 50.7438 14.2181C52.4423 14.2176 54.1408 14.2168 55.8393 14.2164C55.8925 14.2166 55.9459 14.2189 55.9993 14.2201ZM29.45 8.05908C29.4491 5.12389 29.448 2.18849 29.4475 -0.746494C29.4473 -0.962492 29.4242 -0.93406 29.6335 -0.934479C30.5266 -0.935597 31.4194 -0.935248 32.3126 -0.935947C32.3463 -0.935737 32.3809 -0.93413 32.4145 -0.936226C32.4681 -0.93923 32.4972 -0.919879 32.4937 -0.86071C32.4915 -0.82669 32.4934 -0.791831 32.4934 -0.757391C32.4953 5.1176 32.4973 10.9933 32.4989 16.8684C32.4989 17.0697 32.5245 17.0494 32.321 17.0494C31.428 17.0503 30.535 17.0508 29.6418 17.0501C29.4303 17.05 29.4533 17.0768 29.453 16.8647C29.4517 13.9296 29.4508 10.9943 29.45 8.05908ZM42.2758 9.13461C42.2633 9.7001 42.2295 10.2655 42.1677 10.828C42.0845 11.581 41.9721 12.3286 41.7072 13.0429C41.5977 13.3386 41.46 13.6199 41.2646 13.8678C41.0211 14.1771 40.7209 14.3958 40.3261 14.4615C39.8007 14.549 39.3485 14.4067 38.9745 14.021C38.736 13.7753 38.5741 13.4793 38.4455 13.1641C38.2591 12.7077 38.1466 12.2309 38.0639 11.7459C37.8992 10.7786 37.8386 9.80251 37.8237 8.82228C37.8198 8.57163 37.8226 8.32077 37.8226 8.06984C37.818 7.30204 37.8285 6.53424 37.8933 5.76923C37.9608 4.96993 38.0578 4.17516 38.2937 3.40526C38.4135 3.01371 38.5674 2.6383 38.8161 2.31053C39.0374 2.01846 39.3088 1.79778 39.6705 1.71046C40.2419 1.5727 40.7348 1.71625 41.1429 2.14315C41.4039 2.41595 41.5705 2.74902 41.7027 3.10048C41.8922 3.60345 42.0026 4.12675 42.0808 4.65739C42.2998 6.14255 42.309 7.63806 42.2758 9.13461ZM45.2582 8.27969C45.2561 7.10847 45.2108 6.14073 45.0854 5.17747C44.9962 4.48924 44.8674 3.80967 44.6721 3.14379C44.4453 2.37186 44.139 1.6369 43.679 0.974789C43.2555 0.364935 42.7299 -0.127279 42.064 -0.455887C41.5256 -0.721694 40.9545 -0.856169 40.3574 -0.884322C39.8857 -0.906537 39.4176 -0.884112 38.9547 -0.779676C37.9524 -0.553198 37.1542 -0.0076133 36.5352 0.816842C36.0781 1.42551 35.7631 2.10829 35.5259 2.83111C35.1357 4.02057 34.971 5.25068 34.8908 6.49596C34.852 7.10001 34.8472 7.7054 34.8501 8.31092C34.8546 9.1585 34.8993 10.0028 35.0013 10.8443C35.0882 11.5628 35.2173 12.2725 35.4165 12.9682C35.6268 13.703 35.91 14.4064 36.3265 15.0481C36.7928 15.7659 37.388 16.3375 38.1702 16.6891C38.6712 16.9141 39.1978 17.0295 39.7453 17.0557C40.2614 17.0802 40.7722 17.05 41.2741 16.9201C42.2439 16.6705 43.0085 16.115 43.6013 15.3055C44.0866 14.6423 44.408 13.8982 44.6454 13.1135C44.9619 12.0692 45.1146 10.9949 45.1948 9.90876C45.2393 9.29975 45.2625 8.68976 45.2582 8.27969ZM10.6889 7.93041C10.7157 8.00236 11.0001 7.92714 11 8C11.0019 9.79163 11 13.6993 11 13.6993C11 13.6993 11 13.6993 10.5342 13.6975C8.74882 13.6979 6.96364 13.6985 5.17861 13.6993L5.12016 13.6992C5.00876 13.6999 5.00931 13.7087 5.00911 13.5877C5.00863 11.7173 5.00759 9.84666 5.00684 7.9761L5.01379 7.93278C5.06859 7.87906 5.13923 7.88668 5.20608 7.88668C6.96901 7.88486 8.73223 7.88409 10.4954 7.88458C10.5628 7.88465 10.6321 7.882 10.6889 7.93041Z" fill="black"/>
<path d="M10.9922 7.9975L5.01099 8C5.00852 7.94842 5.00446 7.89685 5.00438 7.8452C5.00315 5.95766 5.00279 4.07034 5.00206 2.18309L5.0017 2.1054C4.99103 2.02101 5.03109 1.99393 5.10793 2.00232L5.18469 2.00276C7.06124 2.00232 8.93771 2.00122 10.8147 2.00107C11.0102 2.00151 10.9984 1.97326 10.9983 2.18066C10.9989 4.0682 10.9999 5.9556 11 7.84277C10.9999 7.89464 10.9948 7.94622 10.9922 7.9975Z" fill="#B41400"/>
</g>
<defs>
<clipPath id="clip0_1987_3">
<rect width="16" height="16" fill="white"/>
</clipPath>
</defs>
</svg>
