<svg width="135" height="41" viewBox="0 0 135 41" fill="none" xmlns="http://www.w3.org/2000/svg">
<g clip-path="url(#clip0_1956_2422)">
<path d="M130 40.78H5C2.25 40.78 0 38.53 0 35.78V5.78003C0 3.03003 2.25 0.780029 5 0.780029H130C132.75 0.780029 135 3.03003 135 5.78003V35.78C135 38.53 132.75 40.78 130 40.78Z" fill="black"/>
<path d="M130 0.780029H5C2.25 0.780029 0 3.03003 0 5.78003V35.78C0 38.53 2.25 40.78 5 40.78H130C132.75 40.78 135 38.53 135 35.78V5.78003C135 3.03003 132.75 0.780029 130 0.780029ZM130 1.58003C132.316 1.58003 134.2 3.46443 134.2 5.78003V35.78C134.2 38.096 132.316 39.9804 130 39.9804H5C2.6844 39.9804 0.8 38.096 0.8 35.78V5.78003C0.8 3.46443 2.6844 1.58003 5 1.58003H130Z" fill="#A6A6A6"/>
<path d="M47.4184 11.0232C47.4184 11.861 47.1704 12.5282 46.6735 13.0259C46.1091 13.6177 45.3735 13.9138 44.4692 13.9138C43.6032 13.9138 42.8668 13.6138 42.2613 13.013C41.6547 12.4126 41.3521 11.6681 41.3521 10.7798C41.3521 9.89109 41.6547 9.14699 42.2613 8.54619C42.8668 7.94579 43.6032 7.64539 44.4692 7.64539C44.8989 7.64539 45.3103 7.72939 45.7009 7.89699C46.0915 8.06499 46.4047 8.28799 46.6391 8.56729L46.1117 9.09499C45.7145 8.62039 45.1677 8.38329 44.4692 8.38329C43.8376 8.38329 43.2915 8.60519 42.8306 9.04929C42.3696 9.49389 42.1391 10.0704 42.1391 10.7798C42.1391 11.4892 42.3696 12.0657 42.8306 12.5103C43.2915 12.9544 43.8376 13.1763 44.4692 13.1763C45.1392 13.1763 45.6978 12.9532 46.145 12.5064C46.4353 12.2153 46.6031 11.8107 46.648 11.2911H44.4692V10.5704H47.3766C47.4047 10.7271 47.4184 10.8775 47.4184 11.0232Z" fill="white"/>
<path d="M47.4184 11.0233H47.3184C47.3176 11.842 47.0785 12.4779 46.6027 12.9553L46.6016 12.9561C46.0551 13.5275 45.3523 13.8127 44.4691 13.8139C43.6262 13.8127 42.9207 13.5252 42.3316 12.9424C41.7438 12.3584 41.4531 11.6455 41.452 10.7799C41.4531 9.91393 41.7438 9.20143 42.3316 8.61783C42.9207 8.03463 43.6262 7.74673 44.4691 7.74553C44.8859 7.74553 45.2828 7.82683 45.6613 7.98893C46.0402 8.15223 46.3395 8.36622 46.5625 8.63192L46.6391 8.56743L46.5684 8.49673L46.041 9.02483L46.1117 9.09513L46.1887 9.03113C45.773 8.53303 45.1895 8.28193 44.4691 8.28343C43.8141 8.28263 43.2379 8.51662 42.7613 8.97762C42.2801 9.44012 42.0383 10.049 42.0391 10.7799C42.0383 11.5108 42.2801 12.1197 42.7613 12.5822C43.2379 13.0432 43.8141 13.2772 44.4691 13.2764C45.1613 13.2776 45.7512 13.0428 46.2156 12.5772C46.5258 12.2662 46.7016 11.8354 46.7477 11.2998L46.757 11.1912H44.5691V10.6705H47.3766V10.5705L47.2781 10.5881C47.3055 10.7397 47.3184 10.8838 47.3184 11.0233H47.4184H47.5184C47.5184 10.8713 47.5043 10.7151 47.475 10.5526L47.4602 10.4705H44.3691V11.2912V11.3912H46.648V11.2912L46.5484 11.2826C46.5043 11.7858 46.3441 12.1647 46.0742 12.4358C45.6445 12.8639 45.1172 13.0752 44.4691 13.0764C43.8609 13.0756 43.3449 12.8662 42.9 12.4385C42.4594 12.0123 42.2402 11.4682 42.2391 10.7799C42.2402 10.0916 42.4594 9.54753 42.9 9.12133C43.3449 8.69363 43.8609 8.48423 44.4691 8.48343C45.1453 8.48503 45.6559 8.70843 46.0352 9.15963L46.1055 9.24323L46.7098 8.63813L46.7746 8.57332L46.7156 8.50333C46.4699 8.21043 46.1426 7.97793 45.7402 7.80533C45.3371 7.63223 44.9117 7.54553 44.4691 7.54553C43.5801 7.54473 42.8129 7.85723 42.1906 8.47563C41.566 9.09283 41.2512 9.86863 41.252 10.7799C41.2512 11.6908 41.566 12.467 42.191 13.0846C42.8129 13.7026 43.5801 14.0147 44.4691 14.0139C45.3949 14.0147 46.1629 13.7072 46.7457 13.0951L46.6734 13.026L46.7441 13.0967C47.2621 12.5791 47.5191 11.8799 47.5184 11.0233H47.4184Z" fill="white"/>
<path d="M52.0276 8.51713H49.2952V10.4195H51.7593V11.1405H49.2952V13.0429H52.0276V13.78H48.5249V7.78003H52.0276V8.51713Z" fill="white"/>
<path d="M52.0275 8.51728V8.41728H49.1951V10.5197H51.6592V11.0404L49.1951 11.0407V13.1431H51.9275V13.6802H48.6248V7.88018H51.9275V8.51728H52.0275H52.1275V7.78018V7.68018H48.4248V13.8802H52.1275V13.0431V12.9431H49.3951V11.2407H51.8592V10.4197V10.3197H49.3951V8.61728H52.1275V8.51728H52.0275Z" fill="white"/>
<path d="M55.2788 13.78H54.5073V8.51713H52.8315V7.78003H56.9546V8.51713H55.2788V13.78Z" fill="white"/>
<path d="M55.2787 13.7802V13.6802H54.6072V8.41728H52.9314V7.88018H56.8545V8.41728H55.1787V13.7802H55.2787H55.3787V8.61728H57.0545V7.78018V7.68018H52.7314V8.51728V8.61728H54.4072V13.8802H55.2787H55.3787V13.7802H55.2787Z" fill="white"/>
<path d="M59.938 13.78V7.78003H60.7087V13.78H59.938Z" fill="white"/>
<path d="M59.9379 13.7802H60.0379V7.88018H60.6086V13.6802H59.9379V13.7802V13.8802H60.7086H60.8086V7.68018H59.9379H59.8379V13.8802H59.9379V13.7802Z" fill="white"/>
<path d="M64.1284 13.78H63.3568V8.51713H61.6812V7.78003H65.8041V8.51713H64.1284V13.78Z" fill="white"/>
<path d="M64.1283 13.7802V13.6802H63.4568V8.41728H61.7811V7.88018H65.7041V8.41728H64.0283V13.7802H64.1283H64.2283V8.61728H65.9041V7.78018V7.68018H61.5811V8.51728V8.61728H63.2568V13.8802H64.1283H64.2283V13.7802H64.1283Z" fill="white"/>
<path d="M69.7793 12.5021C70.2234 12.9517 70.7668 13.1763 71.4094 13.1763C72.052 13.1763 72.5957 12.9517 73.0391 12.5021C73.4836 12.0525 73.7063 11.4778 73.7063 10.7798C73.7063 10.0818 73.4836 9.50709 73.0391 9.05749C72.5957 8.60789 72.052 8.38329 71.4094 8.38329C70.7668 8.38329 70.2234 8.60789 69.7793 9.05749C69.3359 9.50709 69.1133 10.0818 69.1133 10.7798C69.1133 11.4778 69.3359 12.0525 69.7793 12.5021ZM73.6094 13.0044C73.0195 13.611 72.2859 13.9138 71.4094 13.9138C70.532 13.9138 69.7988 13.611 69.2102 13.0044C68.6199 12.3985 68.3262 11.6568 68.3262 10.7798C68.3262 9.90279 68.6199 9.16099 69.2102 8.55519C69.7988 7.94849 70.532 7.64539 71.4094 7.64539C72.2813 7.64539 73.0129 7.95009 73.6055 8.55909C74.1973 9.16809 74.4934 9.90829 74.4934 10.7798C74.4934 11.6568 74.198 12.3985 73.6094 13.0044Z" fill="white"/>
<path d="M69.7792 12.5022L69.7081 12.5725C70.1687 13.0401 70.7433 13.2776 71.4093 13.2764C72.0749 13.2776 72.6503 13.0401 73.1101 12.5725C73.5737 12.1045 73.8069 11.499 73.8062 10.7799C73.8069 10.0608 73.5737 9.45533 73.1101 8.98733C72.6503 8.51973 72.0749 8.28223 71.4093 8.28343C70.7433 8.28223 70.1687 8.51973 69.7081 8.98733C69.2456 9.45533 69.012 10.0608 69.0132 10.7799C69.012 11.499 69.2456 12.1045 69.7081 12.5725L69.7792 12.5022L69.8503 12.4319C69.4261 12.0002 69.214 11.4572 69.2132 10.7799C69.214 10.1026 69.4261 9.55963 69.8503 9.12793C70.2784 8.69633 70.7897 8.48464 71.4093 8.48344C72.0284 8.48464 72.5409 8.69633 72.9679 9.12793C73.3929 9.55963 73.605 10.1026 73.6058 10.7799C73.605 11.4572 73.3929 12.0002 72.9679 12.4319C72.5409 12.8635 72.0284 13.0752 71.4093 13.0764C70.7897 13.0752 70.2784 12.8635 69.8503 12.4319L69.7792 12.5022ZM73.6093 13.0045L73.5378 12.935C72.9644 13.5225 72.2632 13.8127 71.4093 13.8139C70.555 13.8127 69.8538 13.5225 69.2815 12.935C68.7093 12.3455 68.4269 11.6346 68.4261 10.7799C68.4269 9.92524 68.7093 9.21433 69.2815 8.62484C69.8538 8.03734 70.555 7.74673 71.4093 7.74553C72.2577 7.74673 72.9573 8.03854 73.5339 8.62914C74.1081 9.22134 74.3921 9.93114 74.3933 10.7799C74.3921 11.6346 74.1089 12.3455 73.5378 12.935L73.6093 13.0045L73.6812 13.074C74.2874 12.4514 74.594 11.6791 74.5933 10.7799C74.594 9.88584 74.2862 9.11513 73.6772 8.48973C73.0679 7.86193 72.3046 7.54444 71.4093 7.54554C70.5093 7.54444 69.7437 7.86043 69.1382 8.48583C68.5308 9.10883 68.2253 9.88074 68.2261 10.7799C68.2253 11.6791 68.5308 12.4514 69.1382 13.0744C69.7437 13.6998 70.5093 14.0147 71.4093 14.0139C72.3089 14.0147 73.0745 13.6994 73.6812 13.074L73.6093 13.0045Z" fill="white"/>
<path d="M75.5752 13.78V7.78003H76.5135L79.4295 12.4476H79.4627L79.4295 11.2913V7.78003H80.201V13.78H79.3963L76.3455 8.88623H76.3123L76.3455 10.0429V13.78H75.5752Z" fill="white"/>
<path d="M75.5756 13.7802H75.6756V7.88018H76.4584L79.3744 12.5478H79.4631H79.5658L79.5299 11.29V7.88018H80.1014V13.6802H79.4522L76.4014 8.78638H76.3127H76.21L76.2459 10.0447V13.6802H75.5756V13.7802V13.8802H76.3459H76.4459V10.0415L76.4127 8.88368L76.3127 8.88638V8.98638H76.3459V8.88638L76.2611 8.93958L79.3412 13.8802H80.2014H80.3014V7.68018H79.4299H79.3299V11.2927L79.3631 12.4505L79.4631 12.4478V12.3478H79.4299V12.4478L79.5147 12.3947L76.5693 7.68018H75.5756H75.4756V13.8802H75.5756V13.7802Z" fill="white"/>
<path d="M106.936 30.78H108.802V18.2788H106.936V30.78ZM123.743 22.782L121.604 28.2019H121.54L119.32 22.782H117.31L120.639 30.3573L118.741 34.571H120.688L125.818 22.782H123.743ZM113.161 29.3601C112.549 29.3601 111.697 29.0546 111.697 28.2984C111.697 27.3335 112.759 26.9636 113.675 26.9636C114.496 26.9636 114.881 27.1405 115.38 27.382C115.235 28.5398 114.238 29.3601 113.161 29.3601ZM113.386 22.5085C112.035 22.5085 110.636 23.1038 110.057 24.4226L111.713 25.114C112.067 24.4226 112.726 24.1972 113.418 24.1972C114.383 24.1972 115.364 24.7765 115.38 25.8058V25.9343C115.042 25.7413 114.319 25.4519 113.434 25.4519C111.649 25.4519 109.831 26.4327 109.831 28.2663C109.831 29.939 111.295 31.0167 112.935 31.0167C114.19 31.0167 114.881 30.4538 115.316 29.7945H115.38V30.7593H117.181V25.9663C117.181 23.7472 115.525 22.5085 113.386 22.5085ZM101.854 24.3038H99.2002V20.0187H101.854C103.249 20.0187 104.041 21.1737 104.041 22.1612C104.041 23.13 103.249 24.3038 101.854 24.3038ZM101.806 18.2788H97.3352V30.78H99.2002V26.0437H101.806C103.874 26.0437 105.907 24.5464 105.907 22.1612C105.907 19.7761 103.874 18.2788 101.806 18.2788ZM77.4252 29.3624C76.1361 29.3624 75.0568 28.2831 75.0568 26.8007C75.0568 25.3027 76.1361 24.207 77.4252 24.207C78.6979 24.207 79.6967 25.3027 79.6967 26.8007C79.6967 28.2831 78.6979 29.3624 77.4252 29.3624ZM79.5678 23.482H79.5033C79.0846 22.9827 78.2787 22.5316 77.2639 22.5316C75.1373 22.5316 73.1881 24.4003 73.1881 26.8007C73.1881 29.1851 75.1373 31.0378 77.2639 31.0378C78.2787 31.0378 79.0846 30.5866 79.5033 30.0714H79.5678V30.6835C79.5678 32.3109 78.6979 33.1808 77.2963 33.1808C76.1525 33.1808 75.4436 32.3589 75.1533 31.6663L73.5264 32.3429C73.9936 33.4706 75.2342 34.8562 77.2963 34.8562C79.4873 34.8562 81.34 33.5671 81.34 30.4257V22.7894H79.5678V23.482ZM82.6287 30.78H84.4975V18.2784H82.6287V30.78ZM87.2525 26.6558C87.2041 25.0124 88.5252 24.1749 89.4756 24.1749C90.2172 24.1749 90.8452 24.5452 91.0542 25.0773L87.2525 26.6558ZM93.0522 25.2382C92.6982 24.2874 91.6182 22.5316 89.4111 22.5316C87.2201 22.5316 85.3998 24.2554 85.3998 26.7847C85.3998 29.1691 87.2041 31.0378 89.6205 31.0378C91.5702 31.0378 92.6982 29.8456 93.1652 29.153L91.7152 28.1862C91.2322 28.8952 90.5712 29.3624 89.6205 29.3624C88.6701 29.3624 87.9936 28.9273 87.5584 28.0737L93.2452 25.7214L93.0522 25.2382ZM47.744 23.8366V25.6409H52.0615C51.9326 26.6558 51.5943 27.3968 51.0787 27.9124C50.4506 28.5409 49.4678 29.2335 47.744 29.2335C45.0857 29.2335 43.0076 27.0909 43.0076 24.4327C43.0076 21.7745 45.0857 19.6316 47.744 19.6316C49.1779 19.6316 50.2248 20.1956 50.9982 20.9206L52.2709 19.648C51.1916 18.6167 49.7576 17.8273 47.744 17.8273C44.1029 17.8273 41.042 20.7917 41.042 24.4327C41.042 28.0737 44.1029 31.0378 47.744 31.0378C49.7096 31.0378 51.1916 30.3937 52.3514 29.1851C53.5436 27.9929 53.9143 26.3175 53.9143 24.9644C53.9143 24.5452 53.8822 24.1589 53.8174 23.8366H47.744ZM58.8229 29.3624C57.5338 29.3624 56.4221 28.2991 56.4221 26.7847C56.4221 25.2542 57.5338 24.207 58.8229 24.207C60.1115 24.207 61.2232 25.2542 61.2232 26.7847C61.2232 28.2991 60.1115 29.3624 58.8229 29.3624ZM58.8229 22.5316C56.4705 22.5316 54.5533 24.3198 54.5533 26.7847C54.5533 29.2335 56.4705 31.0378 58.8229 31.0378C61.1748 31.0378 63.092 29.2335 63.092 26.7847C63.092 24.3198 61.1748 22.5316 58.8229 22.5316ZM68.1361 29.3624C66.8475 29.3624 65.7357 28.2991 65.7357 26.7847C65.7357 25.2542 66.8475 24.207 68.1361 24.207C69.4248 24.207 70.5365 25.2542 70.5365 26.7847C70.5365 28.2991 69.4248 29.3624 68.1361 29.3624ZM68.1361 22.5316C65.7838 22.5316 63.867 24.3198 63.867 26.7847C63.867 29.2335 65.7838 31.0378 68.1361 31.0378C70.4881 31.0378 72.4053 29.2335 72.4053 26.7847C72.4053 24.3198 70.4881 22.5316 68.1361 22.5316Z" fill="white"/>
<path d="M10.5098 33.1696L10.4355 33.0985C10.1445 32.7906 9.97266 32.3125 9.97266 31.6934V31.8391V9.72318V9.86968C9.97266 9.19928 10.173 8.69428 10.5086 8.39148L22.8984 20.7809L10.5098 33.1696Z" fill="url(#paint0_linear_1956_2422)"/>
<path d="M27.0289 24.9118L22.8984 20.7806L27.0285 16.6501L32.0148 19.4829C32.648 19.8427 33.0035 20.3064 33.0629 20.7802C33.0629 20.7806 33.0629 20.7814 33.0629 20.7821C33.0035 21.2548 32.648 21.7189 32.0148 22.0786L27.0289 24.9118Z" fill="url(#paint1_linear_1956_2422)"/>
<path d="M11.3935 33.4949C11.0474 33.4953 10.7454 33.3824 10.5099 33.1699L22.8985 20.7809L27.029 24.9121L12.5138 33.1594C12.1122 33.3871 11.7317 33.4949 11.3935 33.4949ZM10.5064 33.3137C10.4845 33.2938 10.463 33.2727 10.4419 33.2508L10.5064 33.3137Z" fill="url(#paint2_linear_1956_2422)"/>
<path d="M22.8986 20.781L10.5088 8.39148C10.7443 8.17938 11.0459 8.06688 11.3916 8.06688C11.7307 8.06688 12.1115 8.17508 12.5139 8.40318L27.0287 16.6505L22.8986 20.781ZM12.5139 8.25718C12.1115 8.02898 11.7307 7.92078 11.3916 7.92078C11.39 7.92078 11.3889 7.92078 11.3873 7.92078C11.3893 7.92078 11.3908 7.92078 11.3932 7.92078C11.7315 7.92078 12.1119 8.02898 12.5139 8.25718Z" fill="url(#paint3_linear_1956_2422)"/>
<path d="M10.5094 33.3163L10.5063 33.3136C10.5074 33.3144 10.5086 33.3155 10.5094 33.3163ZM10.4418 33.2507L10.4355 33.2445C10.4379 33.2468 10.4398 33.2487 10.4418 33.2507Z" fill="black"/>
<path d="M11.3938 33.6413C11.0477 33.6413 10.7453 33.5284 10.5098 33.3159C10.509 33.3151 10.5074 33.3144 10.5063 33.3136L10.4418 33.2507C10.4398 33.2487 10.4379 33.2464 10.4355 33.2441L10.5098 33.1698C10.7453 33.3823 11.0473 33.4952 11.3934 33.4948C11.7316 33.4948 12.1121 33.387 12.5137 33.1593L27.0289 24.912L27.1219 25.005L27.0277 25.0585L12.5137 33.3054C12.1477 33.5128 11.7996 33.621 11.4852 33.639C11.4543 33.6405 11.4238 33.6413 11.3938 33.6413Z" fill="url(#paint4_linear_1956_2422)"/>
<path d="M10.4355 33.2439C10.1445 32.936 9.97266 32.4583 9.97266 31.8388V31.6931C9.97266 32.3122 10.1445 32.7903 10.4355 33.0982L10.5098 33.1693L10.4355 33.2439Z" fill="url(#paint5_linear_1956_2422)"/>
<path d="M27.1218 25.0052L27.0288 24.9122L32.0147 22.079C32.6479 21.7193 33.0034 21.2552 33.0628 20.7825C33.0628 20.956 33.0241 21.1294 32.9472 21.2982C32.7921 21.6384 32.4812 21.9599 32.0147 22.2251L27.1218 25.0052Z" fill="url(#paint6_linear_1956_2422)"/>
<path d="M33.063 20.7811C33.0626 20.258 32.713 19.7346 32.0149 19.3377C32.7138 19.7346 33.0638 20.258 33.063 20.7811Z" fill="#404040"/>
<path d="M33.0627 20.7805C33.0033 20.3067 32.6478 19.843 32.0146 19.4832L27.0283 16.6504L27.1213 16.5574L32.0146 19.3375C32.7127 19.7344 33.0623 20.2574 33.0627 20.7805Z" fill="url(#paint7_linear_1956_2422)"/>
<path d="M9.97726 9.54498C10.0352 8.51768 10.5938 7.92428 11.384 7.92078C11.0414 7.92278 10.743 8.03528 10.5094 8.24578L10.5066 8.24818C10.482 8.27038 10.4586 8.29388 10.4355 8.31808C10.173 8.59578 10.0074 9.01178 9.97726 9.54498Z" fill="#404040"/>
<path d="M9.97266 9.8699V9.7238C9.97266 9.7218 9.97266 9.7183 9.97266 9.7183V9.71711C9.97266 9.66201 9.97416 9.6081 9.97696 9.5558V9.55341L9.97726 9.5511V9.54641V9.54521C10.0074 9.01201 10.173 8.596 10.4355 8.3183L10.5086 8.39171C10.173 8.69451 9.97266 9.1995 9.97266 9.8699ZM10.5066 8.2484L10.5094 8.24561L10.5066 8.2484Z" fill="url(#paint8_linear_1956_2422)"/>
<path d="M27.0285 16.6501L12.5137 8.40281C12.1113 8.17471 11.7305 8.06651 11.3914 8.06651C11.0457 8.06651 10.7441 8.17901 10.5086 8.39111L10.4355 8.31771C10.4586 8.29351 10.482 8.27001 10.5066 8.24781C10.5074 8.24701 10.5086 8.24621 10.5094 8.24541C10.743 8.03491 11.0414 7.92241 11.384 7.92041C11.3848 7.92041 11.3859 7.92041 11.3871 7.92041C11.3887 7.92041 11.3898 7.92041 11.3914 7.92041C11.7305 7.92041 12.1113 8.02861 12.5137 8.25681L27.1219 16.5568L27.0285 16.6501Z" fill="url(#paint9_linear_1956_2422)"/>
</g>
<defs>
<linearGradient id="paint0_linear_1956_2422" x1="21.7998" y1="9.48988" x2="5.01726" y2="26.2724" gradientUnits="userSpaceOnUse">
<stop stop-color="#00A0FF"/>
<stop offset="0.00657445" stop-color="#00A1FF"/>
<stop offset="0.2601" stop-color="#00BEFF"/>
<stop offset="0.5122" stop-color="#00D2FF"/>
<stop offset="0.7604" stop-color="#00DFFF"/>
<stop offset="1" stop-color="#00E3FF"/>
</linearGradient>
<linearGradient id="paint1_linear_1956_2422" x1="33.8344" y1="20.7812" x2="9.63745" y2="20.7812" gradientUnits="userSpaceOnUse">
<stop stop-color="#FFE000"/>
<stop offset="0.4087" stop-color="#FFBD00"/>
<stop offset="0.7754" stop-color="#FFA500"/>
<stop offset="1" stop-color="#FF9C00"/>
</linearGradient>
<linearGradient id="paint2_linear_1956_2422" x1="24.8271" y1="23.0762" x2="2.06878" y2="45.8345" gradientUnits="userSpaceOnUse">
<stop stop-color="#FF3A44"/>
<stop offset="1" stop-color="#C31162"/>
</linearGradient>
<linearGradient id="paint3_linear_1956_2422" x1="7.29748" y1="0.956376" x2="17.46" y2="11.1189" gradientUnits="userSpaceOnUse">
<stop stop-color="#32A071"/>
<stop offset="0.0685" stop-color="#2DA771"/>
<stop offset="0.4762" stop-color="#15CF74"/>
<stop offset="0.8009" stop-color="#06E775"/>
<stop offset="1" stop-color="#00F076"/>
</linearGradient>
<linearGradient id="paint4_linear_1956_2422" x1="24.827" y1="23.0761" x2="2.06874" y2="45.8344" gradientUnits="userSpaceOnUse">
<stop stop-color="#CC2E36"/>
<stop offset="1" stop-color="#9C0E4E"/>
</linearGradient>
<linearGradient id="paint5_linear_1956_2422" x1="21.7998" y1="9.48943" x2="5.01723" y2="26.272" gradientUnits="userSpaceOnUse">
<stop stop-color="#008DE0"/>
<stop offset="0.00657445" stop-color="#008DE0"/>
<stop offset="0.2601" stop-color="#00A7E0"/>
<stop offset="0.5122" stop-color="#00B8E0"/>
<stop offset="0.7604" stop-color="#00C4E0"/>
<stop offset="1" stop-color="#00C7E0"/>
</linearGradient>
<linearGradient id="paint6_linear_1956_2422" x1="33.8343" y1="20.7816" x2="9.63731" y2="20.7816" gradientUnits="userSpaceOnUse">
<stop stop-color="#E0C500"/>
<stop offset="0.4087" stop-color="#E0A600"/>
<stop offset="0.7754" stop-color="#E09100"/>
<stop offset="1" stop-color="#E08900"/>
</linearGradient>
<linearGradient id="paint7_linear_1956_2422" x1="33.8342" y1="20.7815" x2="9.63722" y2="20.7815" gradientUnits="userSpaceOnUse">
<stop stop-color="#FFE840"/>
<stop offset="0.4087" stop-color="#FFCE40"/>
<stop offset="0.7754" stop-color="#FFBC40"/>
<stop offset="1" stop-color="#FFB540"/>
</linearGradient>
<linearGradient id="paint8_linear_1956_2422" x1="21.7998" y1="9.4901" x2="5.01726" y2="26.2726" gradientUnits="userSpaceOnUse">
<stop stop-color="#40B8FF"/>
<stop offset="0.00657445" stop-color="#40B9FF"/>
<stop offset="0.2601" stop-color="#40CEFF"/>
<stop offset="0.5122" stop-color="#40DDFF"/>
<stop offset="0.7604" stop-color="#40E7FF"/>
<stop offset="1" stop-color="#40EAFF"/>
</linearGradient>
<linearGradient id="paint9_linear_1956_2422" x1="7.29735" y1="0.956007" x2="17.4598" y2="11.1185" gradientUnits="userSpaceOnUse">
<stop stop-color="#65B895"/>
<stop offset="0.0685" stop-color="#62BD95"/>
<stop offset="0.4762" stop-color="#50DB97"/>
<stop offset="0.8009" stop-color="#44ED98"/>
<stop offset="1" stop-color="#40F498"/>
</linearGradient>
<clipPath id="clip0_1956_2422">
<rect width="135" height="40" fill="white" transform="translate(0 0.780029)"/>
</clipPath>
</defs>
</svg>
