<svg width="21" height="21" viewBox="0 0 21 21" fill="none" xmlns="http://www.w3.org/2000/svg">
<g clip-path="url(#clip0_1956_2516)">
<path d="M3.45192 1.2745C2.79325 1.53065 2.23623 1.87218 1.6792 2.4292C1.12218 2.98216 0.780646 3.54325 0.524497 4.19785C0.276479 4.83213 0.109778 5.55992 0.060988 6.62518C0.0121976 7.69043 0 8.03197 0 10.748C0 13.464 0.0121976 13.8055 0.060988 14.8708C0.109778 15.936 0.280545 16.6638 0.524497 17.2981C0.780646 17.9567 1.12218 18.5138 1.6792 19.0708C2.23623 19.6278 2.79325 19.9694 3.45192 20.2255C4.0862 20.4735 4.81399 20.6402 5.87924 20.689C6.9445 20.7378 7.28603 20.75 10.002 20.75C12.718 20.75 13.0596 20.7378 14.1248 20.689C15.1901 20.6402 15.9179 20.4695 16.5521 20.2255C17.2108 19.9694 17.7678 19.6278 18.3249 19.0708C18.8819 18.5138 19.2234 17.9567 19.4796 17.2981C19.7276 16.6638 19.8943 15.936 19.9431 14.8708C19.9919 13.8055 20.0041 13.464 20.0041 10.748C20.0041 8.03197 19.9919 7.69043 19.9431 6.62518C19.8943 5.55992 19.7235 4.83213 19.4796 4.19785C19.2234 3.54325 18.8819 2.98216 18.3289 2.4292C17.7719 1.87218 17.2149 1.53065 16.5562 1.2745C15.9219 1.02648 15.1941 0.859778 14.1289 0.810988C13.0636 0.762198 12.7221 0.75 10.0061 0.75C7.2901 0.75 6.94857 0.762198 5.88331 0.810988C4.81399 0.855713 4.0862 1.02648 3.45192 1.2745ZM14.0435 2.6081C15.0193 2.65283 15.5479 2.81546 15.9016 2.9537C16.3692 3.13666 16.7026 3.35215 17.0522 3.70182C17.4019 4.05148 17.6174 4.38488 17.8004 4.85246C17.9386 5.20619 18.1012 5.73475 18.146 6.71056C18.1948 7.76362 18.2029 8.08076 18.2029 10.752C18.2029 13.4233 18.1907 13.7404 18.146 14.7935C18.1012 15.7693 17.9386 16.2979 17.8004 16.6516C17.6174 17.1192 17.4019 17.4526 17.0522 17.8022C16.7026 18.1519 16.3692 18.3674 15.9016 18.5504C15.5479 18.6886 15.0193 18.8512 14.0435 18.896C12.9904 18.9448 12.6733 18.9529 10.002 18.9529C7.33076 18.9529 7.01362 18.9407 5.96056 18.896C4.98475 18.8512 4.45619 18.6886 4.10246 18.5504C3.63488 18.3674 3.30148 18.1519 2.95182 17.8022C2.60215 17.4526 2.38666 17.1192 2.2037 16.6516C2.06546 16.2979 1.90283 15.7693 1.8581 14.7935C1.80931 13.7404 1.80118 13.4233 1.80118 10.752C1.80118 8.08076 1.81338 7.76362 1.8581 6.71056C1.90283 5.73475 2.06546 5.20619 2.2037 4.85246C2.38666 4.38488 2.60215 4.05148 2.95182 3.70182C3.30148 3.35215 3.63488 3.13666 4.10246 2.9537C4.45619 2.81546 4.98475 2.65283 5.96056 2.6081C7.01362 2.55931 7.33076 2.55118 10.002 2.55118C12.6733 2.55118 12.9904 2.55931 14.0435 2.6081Z" fill="white"/>
<path d="M4.8667 10.7519C4.8667 13.5899 7.16798 15.8871 10.0019 15.8871C12.8358 15.8871 15.1371 13.5858 15.1371 10.7519C15.1371 7.91798 12.8399 5.6167 10.0019 5.6167C7.16392 5.6167 4.8667 7.91391 4.8667 10.7519ZM13.3359 10.7519C13.3359 12.5937 11.8437 14.0859 10.0019 14.0859C8.16005 14.0859 6.66788 12.5937 6.66788 10.7519C6.66788 8.91005 8.16005 7.41788 10.0019 7.41788C11.8437 7.41788 13.3359 8.91005 13.3359 10.7519Z" fill="white"/>
<path d="M15.3445 6.61322C16.0069 6.61322 16.5439 6.07621 16.5439 5.41379C16.5439 4.75136 16.0069 4.21436 15.3445 4.21436C14.682 4.21436 14.145 4.75136 14.145 5.41379C14.145 6.07621 14.682 6.61322 15.3445 6.61322Z" fill="white"/>
</g>
<defs>
<clipPath id="clip0_1956_2516">
<rect width="21" height="20" fill="white" transform="translate(0 0.75)"/>
</clipPath>
</defs>
</svg>
