<svg width="108" height="43" viewBox="0 0 108 43" fill="none" xmlns="http://www.w3.org/2000/svg">
<g clip-path="url(#clip0_1956_2490)">
<path d="M41.553 41.966L0.400963 41.98L0.386963 0.701988L41.539 0.687988L41.553 41.966Z" fill="white" stroke="black" stroke-width="0.5"/>
<path d="M0.64209 41.6957C0.754955 41.6946 0.86745 41.6933 0.980315 41.6933C14.2965 41.6885 27.6123 41.6834 40.9288 41.6782C41.05 41.6781 41.1711 41.6701 41.2926 41.6654L41.3054 41.7373C27.8296 41.7422 14.3526 41.7471 0.876435 41.7483C0.800248 41.7482 0.699815 41.8137 0.64209 41.6957Z" fill="#A4A1A1"/>
<path d="M107.116 37.3217L107.065 37.3227C106.976 37.2232 106.981 37.0981 106.98 36.977C106.978 35.5333 106.977 34.0905 106.979 32.6471C106.98 32.5351 106.971 32.4187 107.052 32.3238L107.115 32.3082C107.115 33.9796 107.116 35.6508 107.116 37.3217Z" fill="#8E8A8B"/>
<path d="M107.052 32.3238C107.055 32.4364 107.062 32.5491 107.062 32.6616C107.064 34.2154 107.065 35.769 107.065 37.3223C106.972 37.3561 106.876 37.34 106.782 37.3395C101.975 37.3424 97.1688 37.3437 92.3621 37.3452H92.2582C92.0326 37.3429 92.0328 37.3424 92.0301 37.1161L92.0304 37.0124C92.0267 26.6559 92.0231 16.3003 92.0209 5.94405C92.0208 5.57244 91.9646 5.61306 92.3512 5.61269C93.9045 5.61084 95.4575 5.61108 97.0104 5.61045C97.0799 5.61045 97.1488 5.61269 97.2185 5.61045C97.2969 5.60861 97.325 5.64664 97.3228 5.72182C97.3195 5.80022 97.3223 5.87824 97.3222 5.95676C97.3252 14.6334 97.3284 23.3097 97.3311 31.9857C97.3312 32.3198 97.3309 32.3203 97.6562 32.3202C100.693 32.3192 103.729 32.3179 106.766 32.3171C106.861 32.3175 106.956 32.3216 107.052 32.3238ZM59.5877 21.4355C59.5861 16.2482 59.5842 11.0606 59.5833 5.87368C59.5829 5.49195 59.5417 5.5422 59.9159 5.54145C61.5125 5.53948 63.1087 5.5401 64.7054 5.53886C64.7657 5.53923 64.8275 5.54207 64.8876 5.53837C64.9835 5.53306 65.0355 5.56726 65.0292 5.67182C65.0253 5.73195 65.0286 5.79355 65.0287 5.85442C65.0322 16.2371 65.0358 26.6211 65.0386 37.004C65.0385 37.3597 65.0843 37.3238 64.7204 37.3239C63.1241 37.3255 61.5276 37.3263 59.9306 37.3252C59.5525 37.3249 59.5938 37.3722 59.5931 36.9975C59.5908 31.8103 59.5893 26.6229 59.5877 21.4355ZM82.5174 23.3363C82.495 24.3357 82.4347 25.3349 82.3241 26.329C82.1754 27.6597 81.9745 28.9808 81.5008 30.2433C81.3051 30.7659 81.059 31.2631 80.7096 31.7011C80.2742 32.2478 79.7376 32.6343 79.0317 32.7503C78.0925 32.9049 77.284 32.6536 76.6154 31.9718C76.1891 31.5376 75.8996 31.0145 75.6697 30.4575C75.3365 29.651 75.1354 28.8082 74.9874 27.9512C74.693 26.2416 74.5847 24.5166 74.5581 22.7843C74.5511 22.3413 74.5562 21.898 74.556 21.4545C74.5479 20.0976 74.5666 18.7407 74.6824 17.3887C74.8032 15.9761 74.9766 14.5716 75.3983 13.211C75.6126 12.519 75.8876 11.8555 76.3322 11.2763C76.7278 10.7601 77.2131 10.3701 77.8596 10.2158C78.8812 9.97232 79.7623 10.226 80.492 10.9805C80.9586 11.4626 81.2564 12.0512 81.4928 12.6723C81.8316 13.5612 82.0289 14.486 82.1687 15.4238C82.5602 18.0485 82.5767 20.6915 82.5174 23.3363ZM87.8492 21.8254C87.8455 19.7555 87.7645 18.0453 87.5403 16.3429C87.3808 15.1266 87.1505 13.9257 86.8013 12.7489C86.396 11.3847 85.8484 10.0858 85.026 8.91565C84.2688 7.83787 83.3292 6.968 82.1386 6.38726C81.1762 5.9175 80.1552 5.67985 79.0877 5.6301C78.2445 5.59084 77.4076 5.63047 76.5801 5.81503C74.7882 6.21528 73.3612 7.17948 72.2545 8.63652C71.4373 9.7122 70.8741 10.9189 70.4502 12.1963C69.7524 14.2984 69.4582 16.4723 69.3148 18.6731C69.2454 19.7406 69.2367 20.8105 69.2419 21.8806C69.25 23.3785 69.3299 24.8706 69.5122 26.3577C69.6676 27.6276 69.8984 28.8818 70.2546 30.1112C70.6305 31.4098 71.1367 32.6529 71.8814 33.787C72.715 35.0557 73.779 36.0658 75.1776 36.6871C76.0731 37.0848 77.0147 37.2886 77.9934 37.3349C78.916 37.3784 79.8293 37.3249 80.7265 37.0954C82.4604 36.6542 83.8273 35.6726 84.887 34.2419C85.7546 33.0698 86.3292 31.7548 86.7537 30.368C87.3195 28.5224 87.5925 26.6239 87.7358 24.7044C87.8154 23.6281 87.857 22.5501 87.8492 21.8254Z" fill="white"/>
<path d="M26.0474 21.2082C26.0954 21.3354 26.063 21.466 26.0627 21.5947C26.0661 24.761 26.0664 27.9273 26.0679 31.0938C26.0679 31.4 26.0679 31.4 25.7708 31.4003C22.5789 31.4009 19.3875 31.4019 16.1962 31.4034L16.0918 31.4033C15.8926 31.4044 15.8936 31.42 15.8932 31.2062C15.8924 27.9007 15.8905 24.5947 15.8892 21.2889L15.9016 21.2124C15.9996 21.1175 16.1258 21.1309 16.2454 21.1309C19.3971 21.1277 22.5493 21.1263 25.7014 21.1272C25.8219 21.1273 25.9458 21.1226 26.0474 21.2082Z" fill="black"/>
<path d="M26.0472 21.2082L15.9014 21.2124C15.8973 21.1258 15.8904 21.0393 15.8902 20.9526C15.8882 17.7853 15.8875 14.6184 15.8863 11.4516L15.8857 11.3213C15.8676 11.1797 15.9355 11.1342 16.0659 11.1483L16.1961 11.149C19.3792 11.1483 22.5622 11.1465 25.746 11.1462C26.0776 11.1469 26.0577 11.0995 26.0576 11.4476C26.0585 14.6148 26.0601 17.7819 26.0604 20.9486C26.0603 21.0356 26.0516 21.1221 26.0472 21.2082Z" fill="#B41400"/>
</g>
<defs>
<clipPath id="clip0_1956_2490">
<rect width="108" height="43" fill="white"/>
</clipPath>
</defs>
</svg>
