<svg width="150" height="60" viewBox="0 0 150 60" fill="none" xmlns="http://www.w3.org/2000/svg">
<g clip-path="url(#clip0_1956_3917)">
<path d="M58.1965 58.9795L0.838377 58.9984L0.819336 1.64021L58.1775 1.62134L58.1965 58.9795Z" fill="white" stroke="black" stroke-width="0.819672" stroke-miterlimit="2" stroke-linejoin="round"/>
<path d="M1.1814 58.5975C1.33871 58.5961 1.4955 58.5944 1.65281 58.5944C20.213 58.5883 38.7727 58.5817 57.3332 58.5751C57.5022 58.5749 57.671 58.5646 57.8403 58.5586L57.8582 58.651C39.0754 58.6574 20.2913 58.6638 1.50803 58.6652C1.40183 58.6651 1.26185 58.7493 1.1814 58.5975Z" fill="#A4A1A1"/>
<path d="M149.581 52.526L149.509 52.5274C149.385 52.3892 149.391 52.2154 149.391 52.0471C149.388 50.041 149.386 48.036 149.389 46.0305C149.39 45.8749 149.378 45.7131 149.491 45.5812L149.578 45.5596C149.578 47.882 149.58 50.2043 149.581 52.526Z" fill="#8E8A8B"/>
<path d="M149.489 45.5825C149.494 45.739 149.504 45.8956 149.503 46.0519C149.506 48.2111 149.507 50.3698 149.508 52.5283C149.379 52.5752 149.244 52.5528 149.113 52.5521C142.413 52.5562 135.714 52.5579 129.015 52.56H128.87C128.555 52.5569 128.556 52.5562 128.552 52.2418L128.552 52.0977C128.547 37.7066 128.542 23.317 128.539 8.92635C128.538 8.40998 128.461 8.46643 128.999 8.46591C131.165 8.46334 133.329 8.46368 135.493 8.46299C135.59 8.46316 135.686 8.46591 135.784 8.46299C135.893 8.46025 135.932 8.51309 135.929 8.61756C135.925 8.72649 135.928 8.83491 135.928 8.94402C135.932 21.0007 135.937 33.057 135.94 45.1127C135.94 45.577 135.94 45.5778 136.393 45.5775C140.625 45.5762 144.858 45.5743 149.09 45.5733C149.223 45.5738 149.356 45.5794 149.489 45.5825Z" fill="black"/>
<path d="M83.3332 30.452C83.3307 23.244 83.3283 16.0355 83.3274 8.82799C83.3266 8.29755 83.2692 8.36737 83.7906 8.36635C86.016 8.3636 88.2406 8.36446 90.4668 8.36274C90.5504 8.36326 90.6365 8.3672 90.7201 8.36206C90.8537 8.35468 90.9266 8.4022 90.9176 8.5475C90.9119 8.63104 90.9168 8.71665 90.9168 8.80122C90.9217 23.2286 90.9266 37.6577 90.9307 52.0854C90.9307 52.5797 90.9946 52.5297 90.4873 52.5299C88.2627 52.5321 86.0373 52.5332 83.811 52.5316C83.284 52.5313 83.3414 52.597 83.3406 52.0763C83.3373 44.8684 83.3356 37.6602 83.3332 30.452Z" fill="black"/>
<path d="M115.287 33.0914C115.256 34.48 115.171 35.8686 115.017 37.2499C114.81 39.0991 114.529 40.9348 113.87 42.6891C113.597 43.4153 113.254 44.1061 112.767 44.7148C112.16 45.4744 111.412 46.0115 110.429 46.1728C109.119 46.3875 107.993 46.0382 107.061 45.091C106.466 44.4876 106.062 43.7608 105.742 42.9868C105.278 41.866 104.998 40.695 104.791 39.5041C104.381 37.1285 104.23 34.7315 104.193 32.3244C104.183 31.7088 104.19 31.0928 104.19 30.4766C104.179 28.5911 104.205 26.7056 104.366 24.8269C104.534 22.8641 104.776 20.9123 105.364 19.0217C105.662 18.0601 106.046 17.1382 106.666 16.3333C107.217 15.616 107.893 15.0741 108.794 14.8597C110.219 14.5214 111.447 14.8739 112.464 15.9223C113.114 16.5922 113.529 17.4101 113.858 18.2732C114.33 19.5083 114.606 20.7935 114.801 22.0965C115.346 25.7437 115.37 29.4163 115.287 33.0914ZM122.718 30.9919C122.713 28.1157 122.6 25.7392 122.288 23.3737C122.066 21.6837 121.744 20.0148 121.257 18.3796C120.693 16.4839 119.929 14.6791 118.783 13.0531C117.728 11.5555 116.418 10.3467 114.759 9.53972C113.417 8.887 111.994 8.55677 110.507 8.48764C109.331 8.43308 108.165 8.48816 107.011 8.74462C104.514 9.30079 102.525 10.6406 100.982 12.6652C99.8434 14.16 99.0582 15.8367 98.4672 17.6117C97.4951 20.5327 97.0844 23.5535 96.8844 26.6116C96.7877 28.095 96.7762 29.5816 96.7828 31.0687C96.7942 33.1501 96.9057 35.2234 97.1598 37.2899C97.3762 39.0545 97.6983 40.7973 98.1951 42.5055C98.7188 44.31 99.4246 46.0374 100.462 47.6132C101.624 49.3761 103.107 50.7797 105.057 51.6432C106.305 52.1957 107.617 52.479 108.981 52.5432C110.267 52.6037 111.54 52.5294 112.79 52.2105C115.207 51.5973 117.112 50.2333 118.589 48.2455C119.798 46.6168 120.599 44.7894 121.191 42.8623C121.979 40.2978 122.361 37.6597 122.56 34.9925C122.671 33.4969 122.729 31.9989 122.718 30.9919Z" fill="black"/>
<path d="M36.5775 30.1348C36.6444 30.3116 36.5993 30.493 36.5989 30.672C36.6035 35.0717 36.6041 39.4715 36.6062 43.8714C36.6062 44.2971 36.6062 44.2971 36.192 44.2974C31.7432 44.2982 27.2949 44.2996 22.847 44.3016L22.7013 44.3015C22.4237 44.303 22.4251 44.3248 22.4246 44.0277C22.4234 39.4344 22.4208 34.8407 22.4189 30.2471L22.4362 30.1407C22.5728 30.0088 22.7489 30.0275 22.9154 30.0275C27.3083 30.023 31.7019 30.0212 36.0953 30.0223C36.2632 30.0225 36.436 30.016 36.5775 30.1348Z" fill="black"/>
<path d="M36.5862 30.1367L22.4449 30.1426C22.4391 30.0224 22.4294 29.9021 22.4293 29.7817C22.4264 25.3805 22.4255 20.9799 22.4238 16.5795L22.423 16.3984C22.3977 16.2016 22.4925 16.1385 22.6741 16.158L22.8556 16.159C27.2922 16.158 31.7287 16.1554 36.1663 16.1551C36.6285 16.1561 36.6008 16.0903 36.6006 16.5739C36.6019 20.9749 36.6042 25.3758 36.6045 29.776C36.6044 29.897 36.5923 30.0172 36.5862 30.1367Z" fill="#B41400"/>
</g>
<defs>
<clipPath id="clip0_1956_3917">
<rect width="150" height="59.0164" fill="white" transform="translate(0 0.801758)"/>
</clipPath>
</defs>
</svg>
