<svg width="19" height="20" viewBox="0 0 19 20" fill="none" xmlns="http://www.w3.org/2000/svg">
<g clip-path="url(#clip0_1956_3950)">
<path d="M15.788 6.9741C16.988 6.65103 17.888 5.54337 17.888 4.2279C17.888 2.65875 16.6188 1.36631 15.0264 1.36631C13.711 1.36631 12.6033 2.26632 12.2802 3.46636L9.78793 0.97417C9.6033 0.789534 9.32644 0.789534 9.14178 0.97417L5.86485 4.22807C5.72641 4.3665 5.68021 4.59734 5.79563 4.78196C5.88787 4.96659 6.09568 5.05883 6.30333 5.01279C6.48796 4.96659 6.64941 4.94357 6.81102 4.94357C8.01106 4.94357 9.00329 5.9358 9.00329 7.13584C9.00329 8.33588 8.01106 9.3281 6.81102 9.3281C5.61098 9.3281 4.61875 8.33588 4.61875 7.13584C4.61875 6.97422 4.64177 6.81277 4.68797 6.62815C4.73417 6.42049 4.64177 6.21285 4.45713 6.12046C4.2725 6.02822 4.04183 6.05124 3.90324 6.18967L0.603321 9.51263C0.418685 9.69727 0.418685 9.97412 0.603321 10.1588L9.1418 18.6973C9.23403 18.7897 9.34945 18.8357 9.46486 18.8357C9.58028 18.8357 9.6957 18.7895 9.78793 18.6973L18.3264 10.1588C18.511 9.97414 18.511 9.69729 18.3264 9.51263L15.788 6.9741ZM9.4649 17.728L1.57258 9.83564L3.71865 7.68957C3.97251 9.14346 5.26481 10.2741 6.78789 10.2741C8.51866 10.2741 9.90336 8.86645 9.90336 7.15868C9.90336 5.61252 8.79571 4.34329 7.31878 4.08944L9.44186 1.96636L12.3265 4.85098C12.4649 4.98942 12.6726 5.03562 12.8572 4.94322C13.0418 4.85098 13.1341 4.66634 13.1111 4.48172V4.4125C13.1111 4.34328 13.088 4.29708 13.088 4.25088C13.088 3.18926 13.965 2.31246 15.0265 2.31246C16.0881 2.31246 16.9649 3.18943 16.9649 4.25088C16.9649 5.31251 16.0879 6.18931 15.0265 6.18931C14.9803 6.18931 14.9342 6.18931 14.8649 6.16629H14.7956C14.611 6.14327 14.4033 6.23551 14.3341 6.42014C14.2649 6.60478 14.2879 6.81243 14.4264 6.95087L17.3572 9.83566L9.4649 17.728Z" fill="black"/>
</g>
<defs>
<clipPath id="clip0_1956_3950">
<rect width="19" height="19" fill="white" transform="translate(0 0.700195)"/>
</clipPath>
</defs>
</svg>
