<svg width="22" height="19" viewBox="0 0 22 19" fill="none" xmlns="http://www.w3.org/2000/svg">
<path fill-rule="evenodd" clip-rule="evenodd" d="M17.3632 1.51253L18.4072 1.4558C15.9391 3.65079 13.3567 5.45324 10.7499 6.93903C7.93185 8.5454 5.08406 9.78249 2.31972 10.745C2.13641 10.8089 2.04036 11.0093 2.10339 11.1924C2.16726 11.3757 2.3675 11.4721 2.55047 11.4083C5.3526 10.4326 8.23925 9.17862 11.0966 7.55017C13.7491 6.03817 16.3756 4.20421 18.8846 1.9718L18.7334 3.01247C18.7063 3.20491 18.8394 3.38292 19.0321 3.41013C19.2246 3.43783 19.4026 3.30412 19.4295 3.11168L19.7223 1.10084C19.7254 1.0791 19.7262 1.05654 19.7249 1.03348C19.7153 0.839716 19.5502 0.69041 19.3565 0.700696L17.3271 0.810684C17.1333 0.820306 16.9845 0.985539 16.9941 1.17931C17.0037 1.37291 17.169 1.52248 17.3632 1.51253ZM6.08583 5.57831C6.16214 5.65412 6.20876 5.75913 6.20876 5.8751C6.20876 5.99073 6.16214 6.0959 6.08583 6.17139C6.01035 6.2477 5.90517 6.29432 5.78954 6.29432C5.67391 6.29432 5.56857 6.24753 5.49275 6.17139C5.41693 6.09591 5.36982 5.99073 5.36982 5.8751C5.36982 5.75913 5.41694 5.65412 5.49275 5.57831C5.56857 5.50249 5.67391 5.45538 5.78954 5.45538C5.9055 5.45554 6.01035 5.50283 6.08583 5.57831ZM5.78954 4.751C6.09993 4.751 6.38114 4.87708 6.58435 5.08047C6.78774 5.28386 6.91316 5.56471 6.91316 5.87529C6.91316 6.18568 6.78774 6.46672 6.58435 6.6701C6.38096 6.87349 6.10012 6.99891 5.78954 6.99891C5.47931 6.99891 5.19811 6.87333 4.99472 6.6701C4.79133 6.46671 4.66525 6.18586 4.66525 5.87529C4.66525 5.56489 4.79134 5.28386 4.99472 5.08047C5.19811 4.87708 5.4793 4.751 5.78954 4.751ZM3.50349 2.48517C3.57931 2.56099 3.62642 2.66583 3.62642 2.78179C3.62642 2.89792 3.5793 3.00277 3.50349 3.07858C3.42768 3.1544 3.32233 3.20151 3.2067 3.20151C3.09107 3.20151 2.9859 3.1544 2.91041 3.07858C2.8341 3.00277 2.78748 2.89792 2.78748 2.78179C2.78748 2.66583 2.8341 2.56099 2.91041 2.48517C2.98589 2.40919 3.09107 2.36224 3.2067 2.36224C3.32233 2.36241 3.42768 2.40903 3.50349 2.48517ZM3.2067 1.65786C3.51693 1.65786 3.79813 1.78345 4.00152 1.98684C4.20491 2.19023 4.33099 2.47158 4.33099 2.78165C4.33099 3.09205 4.20491 3.37308 4.00152 3.57647C3.79813 3.77986 3.51694 3.90577 3.2067 3.90577C2.89631 3.90577 2.61527 3.77969 2.41189 3.57647C2.2085 3.37308 2.08308 3.09223 2.08308 2.78165C2.08308 2.47176 2.2085 2.19022 2.41189 1.98684C2.61544 1.78361 2.89612 1.65786 3.2067 1.65786ZM5.83964 1.87784C5.95278 1.72024 6.17243 1.68457 6.32986 1.79788C6.48697 1.91136 6.5228 2.13083 6.40966 2.28794L3.15909 6.81221C3.04595 6.96931 2.82664 7.00548 2.66938 6.89217C2.51211 6.77853 2.47644 6.55922 2.58958 6.40212L5.83964 1.87784ZM17.2771 5.67224H18.9334C19.1761 5.67224 19.3738 5.86998 19.3738 6.11252V17.9955H21.4874C21.6821 17.9955 21.8397 18.1532 21.8397 18.3478C21.8397 18.5426 21.6821 18.7002 21.4874 18.7002L0.352034 18.7C0.15777 18.7 0 18.5424 0 18.3477V1.27494C0 1.08018 0.157766 0.922578 0.352034 0.922578C0.546463 0.922578 0.704398 1.08018 0.704398 1.27494V17.9952H2.70212V13.7219C2.70212 13.4794 2.89987 13.2816 3.14257 13.2816H4.79939C5.0416 13.2816 5.23984 13.4794 5.23984 13.7219V17.9952H7.41377L7.41393 11.1712C7.41393 10.9291 7.61218 10.7309 7.85421 10.7309H9.51103C9.75373 10.7309 9.95148 10.9291 9.95148 11.1712V17.9952H12.1255L12.1257 8.50835C12.1257 8.26581 12.3231 8.06806 12.566 8.06806H14.2226C14.4652 8.06806 14.6629 8.26581 14.6629 8.50835V17.9952H16.837L16.8368 6.11222C16.8366 5.86968 17.0342 5.67224 17.2771 5.67224Z" fill="black"/>
</svg>
