<svg width="20" height="21" viewBox="0 0 20 21" fill="none" xmlns="http://www.w3.org/2000/svg">
<g clip-path="url(#clip0_1956_3945)">
<path d="M17 0.700195H3C1.34315 0.700195 0 2.04334 0 3.7002V17.7002C0 19.357 1.34315 20.7002 3 20.7002H17C18.6569 20.7002 20 19.357 20 17.7002V3.7002C20 2.04334 18.6569 0.700195 17 0.700195Z" fill="#434343"/>
<path d="M7.42234 16.7751C13.3354 16.7751 16.571 11.8716 16.571 7.62645C16.571 7.4885 16.571 7.35055 16.5647 7.2126C17.1918 6.76112 17.7373 6.19051 18.17 5.54465C17.5931 5.80174 16.9723 5.97104 16.3202 6.05256C16.9849 5.65751 17.4928 5.02419 17.7373 4.27173C17.1165 4.64169 16.4268 4.90505 15.6931 5.04928C15.1037 4.42222 14.2697 4.03345 13.348 4.03345C11.5734 4.03345 10.1312 5.47567 10.1312 7.25022C10.1312 7.50104 10.1626 7.74559 10.2127 7.98387C7.54148 7.85219 5.17123 6.56674 3.5848 4.62288C3.30889 5.09944 3.15213 5.65124 3.15213 6.24067C3.15213 7.35682 3.72275 8.34129 4.58181 8.91818C4.05508 8.89937 3.55971 8.75514 3.12705 8.51686C3.12705 8.52941 3.12705 8.54195 3.12705 8.56076C3.12705 10.1158 4.23693 11.4201 5.70423 11.7148C5.43459 11.7901 5.15242 11.8277 4.85771 11.8277C4.65078 11.8277 4.45013 11.8089 4.25574 11.7712C4.66332 13.0504 5.85472 13.9785 7.25931 14.0035C6.1557 14.8689 4.76992 15.3831 3.265 15.3831C3.00791 15.3831 2.75082 15.3705 2.5 15.3392C3.91713 16.2421 5.61017 16.7751 7.42234 16.7751Z" fill="white"/>
</g>
<defs>
<clipPath id="clip0_1956_3945">
<rect width="20" height="20" fill="white" transform="translate(0 0.700195)"/>
</clipPath>
</defs>
</svg>
