<svg width="20" height="21" viewBox="0 0 20 21" fill="none" xmlns="http://www.w3.org/2000/svg">
<g clip-path="url(#clip0_1956_2511)">
<path d="M17 0.75H3C1.34315 0.75 0 2.09315 0 3.75V17.75C0 19.4069 1.34315 20.75 3 20.75H17C18.6569 20.75 20 19.4069 20 17.75V3.75C20 2.09315 18.6569 0.75 17 0.75Z" fill="white"/>
<path d="M7.42234 16.8252C13.3354 16.8252 16.571 11.9216 16.571 7.6765C16.571 7.53854 16.571 7.40059 16.5647 7.26264C17.1918 6.81117 17.7373 6.24055 18.17 5.59469C17.5931 5.85178 16.9723 6.02108 16.3202 6.1026C16.9849 5.70756 17.4928 5.07424 17.7373 4.32177C17.1165 4.69173 16.4268 4.9551 15.6931 5.09932C15.1037 4.47227 14.2697 4.0835 13.348 4.0835C11.5734 4.0835 10.1312 5.52571 10.1312 7.30026C10.1312 7.55108 10.1626 7.79563 10.2127 8.03391C7.54148 7.90223 5.17123 6.61678 3.5848 4.67292C3.30889 5.14948 3.15213 5.70129 3.15213 6.29071C3.15213 7.40686 3.72275 8.39133 4.58181 8.96822C4.05508 8.94941 3.55971 8.80519 3.12705 8.56691C3.12705 8.57945 3.12705 8.59199 3.12705 8.6108C3.12705 10.1659 4.23693 11.4701 5.70423 11.7649C5.43459 11.8401 5.15242 11.8777 4.85771 11.8777C4.65078 11.8777 4.45013 11.8589 4.25574 11.8213C4.66332 13.1005 5.85472 14.0285 7.25931 14.0536C6.1557 14.9189 4.76992 15.4331 3.265 15.4331C3.00791 15.4331 2.75082 15.4206 2.5 15.3892C3.91713 16.2922 5.61017 16.8252 7.42234 16.8252Z" fill="#434343"/>
</g>
<defs>
<clipPath id="clip0_1956_2511">
<rect width="20" height="20" fill="white" transform="translate(0 0.75)"/>
</clipPath>
</defs>
</svg>
