<svg width="20" height="20" viewBox="0 0 20 20" fill="none" xmlns="http://www.w3.org/2000/svg">
<g clip-path="url(#clip0_1956_3954)">
<path d="M11.4438 6.64854C11.7847 6.21766 12.3107 5.93979 12.9014 5.93979C13.9265 5.93979 14.7606 6.77384 14.7606 7.79899C14.7606 7.84068 14.757 7.88147 14.7545 7.92249C15.1978 8.1377 15.6068 8.41444 15.9707 8.74481C16.0627 8.44577 16.1127 8.12824 16.1127 7.79899C16.1127 6.02543 14.6747 4.58765 12.9014 4.58765C11.6957 4.58765 10.6467 5.25291 10.0977 6.23546C10.5595 6.32538 11.0115 6.46195 11.4438 6.64854Z" fill="black"/>
<path d="M16.8035 11.2771C16.2314 9.40729 14.5076 8.09323 12.5231 8.07678C11.4824 7.24273 10.1907 6.78638 8.85721 6.78638C6.16262 6.78638 3.80583 8.66248 3.16221 11.2318C1.4033 11.4919 0 13.0946 0 14.9621C0 17.0039 1.67801 18.7288 3.66386 18.7288H16.3271C18.3132 18.7288 19.9912 17.0037 19.9912 14.9615C19.9912 13.0764 18.5999 11.5144 16.8035 11.2771ZM16.3271 17.3766H3.66386C2.41065 17.3766 1.35214 16.2708 1.35214 14.9619C1.35214 13.6591 2.40051 12.5574 3.64583 12.5468C3.66882 12.5488 3.6918 12.5504 3.71501 12.5506L4.30365 12.5571L4.39131 11.9753C4.72033 9.78814 6.64038 8.13943 8.85744 8.13943C9.94929 8.13943 11.0053 8.53898 11.831 9.26261L12.0386 9.4465L12.3401 9.435L12.4857 9.44582C14.0078 9.44582 15.3164 10.5541 15.597 12.0577L15.7004 12.6441H16.1489C16.2 12.6441 16.2597 12.6322 16.3271 12.6322C17.5803 12.6322 18.6391 13.6801 18.6391 14.9615C18.6391 16.2708 17.5803 17.3766 16.3271 17.3766Z" fill="black"/>
<path d="M12.5628 3.8552C12.9362 3.8552 13.2389 3.55255 13.2389 3.17913V1.37627C13.2389 1.00285 12.9362 0.700195 12.5628 0.700195C12.1894 0.700195 11.8867 1.00285 11.8867 1.37627V3.17913C11.8867 3.55255 12.1894 3.8552 12.5628 3.8552Z" fill="black"/>
<path d="M16.2279 5.14891C16.401 5.14891 16.5741 5.08288 16.7061 4.95082L17.9213 3.73525C18.1851 3.47113 18.1851 3.04317 17.921 2.77905C17.6569 2.51494 17.229 2.51516 16.9648 2.77905L15.7497 3.99463C15.4858 4.25875 15.4858 4.6867 15.7499 4.95082C15.882 5.08288 16.0548 5.14891 16.2279 5.14891Z" fill="black"/>
<path d="M16.8447 8.13701C16.8447 8.51043 17.1474 8.81308 17.5208 8.81308H19.3236C19.697 8.81308 19.9997 8.51043 19.9997 8.13701C19.9997 7.7636 19.697 7.46094 19.3236 7.46094H17.5208C17.1474 7.46094 16.8447 7.7636 16.8447 8.13701Z" fill="black"/>
<path d="M9.09709 4.95097C9.22893 5.0828 9.40223 5.14883 9.57507 5.14883C9.74792 5.14883 9.92122 5.0828 10.0533 4.95074C10.3172 4.68685 10.3172 4.25867 10.0533 3.99455L8.83771 2.77898C8.57381 2.51508 8.14563 2.51508 7.88152 2.77898C7.61762 3.04287 7.61762 3.47105 7.88152 3.73517L9.09709 4.95097Z" fill="black"/>
</g>
<defs>
<clipPath id="clip0_1956_3954">
<rect width="20" height="19" fill="white" transform="translate(0 0.700195)"/>
</clipPath>
</defs>
</svg>
