<svg width="21" height="22" viewBox="0 0 21 22" fill="none" xmlns="http://www.w3.org/2000/svg">
<g clip-path="url(#clip0_1956_2522)">
<path fill-rule="evenodd" clip-rule="evenodd" d="M2.625 0.75C1.17526 0.75 0 1.92526 0 3.375V19.125C0 20.5748 1.17526 21.75 2.625 21.75H18.375C19.8248 21.75 21 20.5748 21 19.125V3.375C21 1.92526 19.8248 0.75 18.375 0.75H2.625ZM16.2418 6.30736C16.8746 6.47677 17.372 6.97411 17.5415 7.60698C17.8488 8.75292 17.85 11.1453 17.85 11.1453C17.85 11.1453 17.85 13.5376 17.5426 14.6835C17.3732 15.3164 16.8759 15.8137 16.243 15.9831C15.0971 16.2904 10.5 16.2904 10.5 16.2904C10.5 16.2904 5.90292 16.2904 4.75698 15.9831C4.12411 15.8137 3.62677 15.3164 3.45736 14.6835C3.15 13.5376 3.15 11.1453 3.15 11.1453C3.15 11.1453 3.15 8.75292 3.45614 7.60698C3.62556 6.97411 4.12411 6.47677 4.75577 6.30736C5.90171 6 10.4988 6 10.4988 6C10.4988 6 15.0958 6 16.2418 6.30736Z" fill="white"/>
<path d="M9.02954 13.3502L12.8474 11.1454L9.02954 8.94067V13.3502Z" fill="white"/>
</g>
<defs>
<clipPath id="clip0_1956_2522">
<rect width="21" height="21" fill="white" transform="translate(0 0.75)"/>
</clipPath>
</defs>
</svg>
